<svg width="19" height="19" viewBox="0 0 19 19" fill="none" xmlns="http://www.w3.org/2000/svg">
<path d="M2.63672 8.0625H3.95508C4.26489 8.0625 4.56214 8.18528 4.78125 8.4043C5.00036 8.62341 5.124 8.9206 5.12402 9.23047C5.12402 9.54036 5.00038 9.83751 4.78125 10.0566C4.56213 10.2757 4.26492 10.3994 3.95508 10.3994H2.4873V15.9727H15.9717V10.3994H14.5029C14.1931 10.3994 13.8959 10.2758 13.6768 10.0566C13.4577 9.83752 13.335 9.54033 13.335 9.23047C13.335 8.9206 13.4576 8.62341 13.6768 8.4043C13.8959 8.18519 14.1931 8.06252 14.5029 8.0625H15.8213C16.4808 8.0625 17.1137 8.32375 17.5801 8.79004C18.0464 9.25638 18.3085 9.88932 18.3086 10.5488V15.8232C18.3085 16.4826 18.0462 17.1148 17.5801 17.5811C17.1137 18.0474 16.4809 18.3096 15.8213 18.3096H2.63672C1.97722 18.3095 1.34427 18.0474 0.87793 17.5811C0.411875 17.1148 0.150505 16.4825 0.150391 15.8232V10.5488C0.150435 9.88932 0.41159 9.25638 0.87793 8.79004C1.34427 8.3237 1.97722 8.06255 2.63672 8.0625ZM9.22949 0.150391C9.38287 0.150432 9.53514 0.180359 9.67676 0.239258C9.81822 0.298145 9.94661 0.384537 10.0547 0.493164L10.0557 0.494141L13.7852 4.22266C13.8935 4.33116 13.9794 4.45988 14.0381 4.60156C14.0968 4.74349 14.127 4.8962 14.127 5.0498C14.1269 5.20329 14.0969 5.35528 14.0381 5.49707C13.9793 5.63891 13.8928 5.76743 13.7842 5.87598C13.6756 5.98449 13.5471 6.07115 13.4053 6.12988C13.2633 6.18861 13.1106 6.2188 12.957 6.21875C12.8036 6.21865 12.6515 6.18864 12.5098 6.12988C12.368 6.07111 12.2394 5.98449 12.1309 5.87598L10.6533 4.39648L10.3975 4.13965V11.9414C10.3974 12.2512 10.2747 12.5485 10.0557 12.7676C9.83661 12.9866 9.53927 13.1093 9.22949 13.1094C8.9197 13.1094 8.62243 12.9866 8.40332 12.7676C8.18422 12.5485 8.06058 12.2513 8.06055 11.9414V4.14062L7.80469 4.39648L6.32617 5.87598C6.10689 6.0949 5.80986 6.21775 5.5 6.21777C5.18981 6.21766 4.89212 6.0944 4.67285 5.875C4.45358 5.65557 4.32997 5.35806 4.33008 5.04785C4.33023 4.73769 4.45345 4.43995 4.67285 4.2207L8.40332 0.494141V0.493164C8.51152 0.384369 8.64055 0.298179 8.78223 0.239258C8.92389 0.180373 9.07608 0.150391 9.22949 0.150391Z" fill="#181725" stroke="white" stroke-width="0.3"/>
</svg>
